{
  "accessors": [
    {
      "bufferView": 3,
      "componentType": 5126,
      "count": 1580,
      "max": [
        0.08824994415044785,
        0.07123268395662308,
        0.1748833805322647
      ],
      "min": [
        -0.08824994415044785,
        -0.07123268395662308,
        -0.1748833805322647
      ],
      "type": "VEC3"
    },
    {
      "bufferView": 3,
      "byteOffset": 18960,
      "componentType": 5126,
      "count": 1580,
      "max": [
        1.0,
        0.99920254945755,
        0.9889489412307739
      ],
      "min": [
        -1.0,
        -0.9984315037727356,
        -0.9929823875427246
      ],
      "type": "VEC3"
    },
    {
      "bufferView": 2,
      "componentType": 5126,
      "count": 1580,
      "max": [
        0.5540757775306702,
        0.7690753936767578
      ],
      "min": [
        0.33294862508773804,
        0.125309556722641
      ],
      "type": "VEC2"
    },
    {
      "bufferView": 1,
      "componentType": 5125,
      "count": 2418,
      "type": "SCALAR"
    },
    {
      "bufferView": 5,
      "componentType": 5126,
      "count": 10,
      "max": [
        100.0,
        1.919594474694697e-12,
        0.0,
        0.0,
        0.0,
        100.0,
        1.0,
        0.0,
        0.0,
        0.9937869906425476,
        100.0,
        0.0,
        1.2332370680212534e-08,
        0.08306364715099335,
        2.7014015469006836e-09,
        1.0
      ],
      "min": [
        -1.0,
        -8.707993636065947e-13,
        -3.894222970757255e-07,
        0.0,
        -3.86994685186437e-07,
        -0.2959807813167572,
        0.0,
        0.0,
        -1.1525727217076565e-07,
        -1.0000001192092896,
        -3.252206681736425e-08,
        0.0,
        0.0,
        -0.11638867110013962,
        -0.0316702201962471,
        1.0
      ],
      "type": "MAT4"
    },
    {
      "bufferView": 0,
      "componentType": 5123,
      "count": 1580,
      "type": "VEC4"
    },
    {
      "bufferView": 4,
      "componentType": 5126,
      "count": 1580,
      "max": [
        1.0,
        0.4700077474117279,
        0.21521015465259552,
        0.08102928102016449
      ],
      "min": [
        0.4375927746295929,
        0.0,
        0.0,
        0.0
      ],
      "type": "VEC4"
    },
    {
      "bufferView": 6,
      "componentType": 5126,
      "count": 63,
      "max": [
        1.4583333730697632
      ],
      "min": [
        0.125
      ],
      "type": "SCALAR"
    },
    {
      "bufferView": 7,
      "componentType": 5126,
      "count": 63,
      "max": [
        1.862645149230957e-09,
        0.03298555687069893,
        -2.564730399246806e-17
      ],
      "min": [
        1.862645149230957e-09,
        0.03298555687069893,
        -2.564731391863541e-17
      ],
      "type": "VEC3"
    },
    {
      "bufferView": 6,
      "byteOffset": 252,
      "componentType": 5126,
      "count": 65,
      "max": [
        1.4583333730697632
      ],
      "min": [
        0.125
      ],
      "type": "SCALAR"
    },
    {
      "bufferView": 8,
      "componentType": 5126,
      "count": 65,
      "max": [
        1.4106968122689624e-17,
        3.207208198461643e-16,
        0.1934565156698227,
        0.9999778866767883
      ],
      "min": [
        -1.303938136173235e-16,
        2.930214131028502e-16,
        -0.2648043930530548,
        0.964302122592926
      ],
      "type": "VEC4"
    },
    {
      "bufferView": 6,
      "byteOffset": 512,
      "componentType": 5126,
      "count": 64,
      "max": [
        1.4583333730697632
      ],
      "min": [
        0.125
      ],
      "type": "SCALAR"
    },
    {
      "bufferView": 7,
      "byteOffset": 756,
      "componentType": 5126,
      "count": 64,
      "max": [
        1.862645149230957e-09,
        0.041082024574279785,
        -8.130962082630873e-19
      ],
      "min": [
        1.862645149230957e-09,
        0.041082024574279785,
        -8.131044800692128e-19
      ],
      "type": "VEC3"
    },
    {
      "bufferView": 6,
      "byteOffset": 768,
      "componentType": 5126,
      "count": 65,
      "max": [
        1.4583333730697632
      ],
      "min": [
        0.125
      ],
      "type": "SCALAR"
    },
    {
      "bufferView": 8,
      "byteOffset": 1040,
      "componentType": 5126,
      "count": 65,
      "max": [
        1.1668159428091765e-16,
        4.035536275960404e-17,
        0.1424313187599182,
        0.9999999403953552
      ],
      "min": [
        1.1027154672111763e-16,
        1.3182698012918797e-17,
        -0.09525970369577408,
        0.9898046851158142
      ],
      "type": "VEC4"
    },
    {
      "bufferView": 6,
      "byteOffset": 1028,
      "componentType": 5126,
      "count": 65,
      "max": [
        1.4583333730697632
      ],
      "min": [
        0.125
      ],
      "type": "SCALAR"
    },
    {
      "bufferView": 8,
      "byteOffset": 2080,
      "componentType": 5126,
      "count": 65,
      "max": [
        -1.7489645350398752e-15,
        4.132717954185666e-16,
        0.09803086519241333,
        0.9999985098838806
      ],
      "min": [
        -1.790359352809548e-15,
        1.5583329675269373e-16,
        -0.047011636197566986,
        0.9951833486557007
      ],
      "type": "VEC4"
    },
    {
      "bufferView": 6,
      "byteOffset": 1288,
      "componentType": 5126,
      "count": 65,
      "max": [
        1.4583333730697632
      ],
      "min": [
        0.125
      ],
      "type": "SCALAR"
    },
    {
      "bufferView": 8,
      "byteOffset": 3120,
      "componentType": 5126,
      "count": 65,
      "max": [
        1.616825429096025e-08,
        4.948589982234353e-09,
        0.04084385558962822,
        0.9999991655349731
      ],
      "min": [
        1.5489762361653447e-08,
        1.7346115654959249e-09,
        -0.16079400479793549,
        0.9869880080223083
      ],
      "type": "VEC4"
    },
    {
      "bufferView": 6,
      "byteOffset": 1548,
      "componentType": 5126,
      "count": 65,
      "max": [
        1.4583333730697632
      ],
      "min": [
        0.125
      ],
      "type": "SCALAR"
    },
    {
      "bufferView": 8,
      "byteOffset": 4160,
      "componentType": 5126,
      "count": 65,
      "max": [
        -0.09413790702819824,
        0.003177179489284754,
        0.03354205936193466,
        0.9955591559410095
      ],
      "min": [
        -0.09433073550462723,
        -0.000702359713613987,
        -0.007397622335702181,
        0.9949722290039063
      ],
      "type": "VEC4"
    },
    {
      "bufferView": 6,
      "byteOffset": 1808,
      "componentType": 5126,
      "count": 65,
      "max": [
        1.4583333730697632
      ],
      "min": [
        0.125
      ],
      "type": "SCALAR"
    },
    {
      "bufferView": 8,
      "byteOffset": 5200,
      "componentType": 5126,
      "count": 65,
      "max": [
        0.0010288741905242205,
        -0.0557311475276947,
        0.9984457492828369,
        0.018020356073975563
      ],
      "min": [
        -0.00116174784488976,
        -0.05575866997241974,
        0.9982811212539673,
        -0.016610004007816315
      ],
      "type": "VEC4"
    }
  ],
  "animations": [
    {
      "channels": [
        {
          "sampler": 0,
          "target": {
            "node": 14,
            "path": "translation"
          }
        },
        {
          "sampler": 1,
          "target": {
            "node": 14,
            "path": "rotation"
          }
        },
        {
          "sampler": 2,
          "target": {
            "node": 13,
            "path": "translation"
          }
        },
        {
          "sampler": 3,
          "target": {
            "node": 13,
            "path": "rotation"
          }
        },
        {
          "sampler": 4,
          "target": {
            "node": 12,
            "path": "rotation"
          }
        },
        {
          "sampler": 5,
          "target": {
            "node": 11,
            "path": "rotation"
          }
        },
        {
          "sampler": 6,
          "target": {
            "node": 17,
            "path": "rotation"
          }
        },
        {
          "sampler": 7,
          "target": {
            "node": 16,
            "path": "rotation"
          }
        }
      ],
      "name": "Scene",
      "samplers": [
        {
          "input": 7,
          "interpolation": "LINEAR",
          "output": 8
        },
        {
          "input": 9,
          "interpolation": "LINEAR",
          "output": 10
        },
        {
          "input": 11,
          "interpolation": "LINEAR",
          "output": 12
        },
        {
          "input": 13,
          "interpolation": "LINEAR",
          "output": 14
        },
        {
          "input": 15,
          "interpolation": "LINEAR",
          "output": 16
        },
        {
          "input": 17,
          "interpolation": "LINEAR",
          "output": 18
        },
        {
          "input": 19,
          "interpolation": "LINEAR",
          "output": 20
        },
        {
          "input": 21,
          "interpolation": "LINEAR",
          "output": 22
        }
      ]
    }
  ],
  "asset": {
    "extras": {
      "author": "FlanCasero (https://sketchfab.com/FlanCasero)",
      "license": "CC-BY-4.0 (http://creativecommons.org/licenses/by/4.0/)",
      "source": "https://sketchfab.com/3d-models/animated-low-poly-koi-fish-65fc24a235f64bf3b4951c0111d0e4d4",
      "title": "animated low-poly koi fish"
    },
    "generator": "Sketchfab-14.87.0",
    "version": "2.0"
  },
  "bufferViews": [
    {
      "buffer": 0,
      "byteLength": 12640,
      "byteStride": 8,
      "name": "shortBufferViews",
      "target": 34962
    },
    {
      "buffer": 0,
      "byteLength": 9672,
      "byteOffset": 12640,
      "name": "floatBufferViews",
      "target": 34963
    },
    {
      "buffer": 0,
      "byteLength": 12640,
      "byteOffset": 22312,
      "byteStride": 8,
      "name": "floatBufferViews",
      "target": 34962
    },
    {
      "buffer": 0,
      "byteLength": 37920,
      "byteOffset": 34952,
      "byteStride": 12,
      "name": "floatBufferViews",
      "target": 34962
    },
    {
      "buffer": 0,
      "byteLength": 25280,
      "byteOffset": 72872,
      "byteStride": 16,
      "name": "floatBufferViews",
      "target": 34962
    },
    {
      "buffer": 0,
      "byteLength": 640,
      "byteOffset": 98152,
      "name": "floatBufferViews"
    },
    {
      "buffer": 0,
      "byteLength": 2068,
      "byteOffset": 98792,
      "name": "floatBufferViews"
    },
    {
      "buffer": 0,
      "byteLength": 1524,
      "byteOffset": 100860,
      "byteStride": 12,
      "name": "floatBufferViews"
    },
    {
      "buffer": 0,
      "byteLength": 6240,
      "byteOffset": 102384,
      "byteStride": 16,
      "name": "floatBufferViews"
    }
  ],
  "buffers": [
    {
      "byteLength": 108624,
      "uri": "scene.bin"
    }
  ],
  "images": [
    {
      "uri": "textures/ocean-opaque_baseColor.png"
    }
  ],
  "materials": [
    {
      "doubleSided": true,
      "name": "ocean-opaque",
      "pbrMetallicRoughness": {
        "baseColorTexture": {
          "index": 0
        },
        "metallicFactor": 0.0,
        "roughnessFactor": 0.8040408205773457
      }
    }
  ],
  "meshes": [
    {
      "name": "Cube.062koi-showa_ocean-opaque_0",
      "primitives": [
        {
          "attributes": {
            "JOINTS_0": 5,
            "NORMAL": 1,
            "POSITION": 0,
            "TEXCOORD_0": 2,
            "WEIGHTS_0": 6
          },
          "indices": 3,
          "material": 0,
          "mode": 4
        }
      ]
    }
  ],
  "nodes": [
    {
      "children": [
        1
      ],
      "matrix": [
        1.0,
        0.0,
        0.0,
        0.0,
        0.0,
        2.220446049250313e-16,
        -1.0,
        0.0,
        0.0,
        1.0,
        2.220446049250313e-16,
        0.0,
        0.0,
        0.0,
        0.0,
        1.0
      ],
      "name": "Sketchfab_model"
    },
    {
      "children": [
        2
      ],
      "matrix": [
        0.009999999776482582,
        0.0,
        0.0,
        0.0,
        0.0,
        0.0,
        0.009999999776482582,
        0.0,
        0.0,
        -0.009999999776482582,
        0.0,
        0.0,
        0.0,
        0.0,
        0.0,
        1.0
      ],
      "name": "1_koi-showa-anim.fbx"
    },
    {
      "children": [
        3
      ],
      "name": "Object_2"
    },
    {
      "children": [
        4,
        5
      ],
      "name": "RootNode"
    },
    {
      "name": "Cube.062koi-showa",
      "rotation": [
        -0.7071068286895752,
        0.0,
        0.0,
        0.7071067094802856
      ],
      "scale": [
        100.0,
        100.0,
        100.0
      ]
    },
    {
      "children": [
        6
      ],
      "name": "Armature",
      "rotation": [
        -0.7071068286895752,
        0.0,
        0.0,
        0.7071067094802856
      ],
      "scale": [
        100.0,
        100.0,
        100.0
      ]
    },
    {
      "children": [
        7,
        9,
        8
      ],
      "name": "Object_6"
    },
    {
      "children": [
        10
      ],
      "name": "_rootJoint"
    },
    {
      "matrix": [
        100.0,
        0.0,
        0.0,
        0.0,
        0.0,
        5.053215498074308e-14,
        -100.0000000000001,
        0.0,
        0.0,
        100.0000000000001,
        5.053215498074308e-14,
        0.0,
        0.0,
        1.1137832735090558e-14,
        2.9802321499516893e-07,
        1.0
      ],
      "name": "Object_8"
    },
    {
      "mesh": 0,
      "name": "Object_9",
      "skin": 0
    },
    {
      "children": [
        11,
        16
      ],
      "name": "Bone_00",
      "rotation": [
        -1.6261033408682124e-08,
        -0.0,
        0.0,
        1.0
      ],
      "translation": [
        0.0,
        -0.08306365460157394,
        0.0
      ]
    },
    {
      "children": [
        12
      ],
      "name": "Bone.001_01",
      "rotation": [
        1.6114858780724717e-08,
        2.1754549273111934e-09,
        -0.13378335535526276,
        0.9910106062889099
      ],
      "scale": [
        1.0,
        0.9999999403953552,
        1.0
      ],
      "translation": [
        0.0,
        0.06091516092419624,
        1.1102230246251565e-16
      ]
    },
    {
      "children": [
        13
      ],
      "name": "Bone.002_02",
      "rotation": [
        -1.7797318421785852e-15,
        2.4944982653785216e-16,
        0.04573972150683403,
        0.9989534020423889
      ],
      "translation": [
        -9.313225746154785e-10,
        0.0506778247654438,
        1.184653133189372e-16
      ]
    },
    {
      "children": [
        14
      ],
      "name": "Bone.003_03",
      "rotation": [
        1.1583356871692829e-16,
        1.926019415105413e-17,
        -0.04312669858336449,
        0.9990696310997009
      ],
      "translation": [
        1.862645149230957e-09,
        0.041082024574279785,
        -8.131019985273751e-19
      ]
    },
    {
      "children": [
        15
      ],
      "name": "Bone.004_04",
      "rotation": [
        -8.86259770960586e-17,
        3.0823618947834635e-16,
        0.05594264343380928,
        0.9984340071678162
      ],
      "scale": [
        0.9999999403953552,
        0.9999999403953552,
        1.0
      ],
      "translation": [
        1.862645149230957e-09,
        0.03298555687069893,
        -2.564730730119051e-17
      ]
    },
    {
      "name": "Bone.004_end_07",
      "rotation": [
        0.0,
        -3.308722450212111e-24,
        0.0,
        1.0
      ],
      "translation": [
        -3.469446951953614e-18,
        0.03478478640317917,
        3.308722450212111e-24
      ]
    },
    {
      "children": [
        17
      ],
      "name": "Bone.005_05",
      "rotation": [
        0.0004221009148750454,
        -0.05573652312159538,
        0.9984167814254761,
        0.007564899977296591
      ],
      "scale": [
        1.0,
        0.9999997019767761,
        0.9999796152114868
      ]
    },
    {
      "children": [
        18
      ],
      "name": "Bone.006_06",
      "rotation": [
        -0.0943276509642601,
        0.0009442700538784266,
        0.0099644111469388,
        0.9954909086227417
      ],
      "scale": [
        0.9999999403953552,
        0.9999999403953552,
        0.9999999403953552
      ],
      "translation": [
        1.5916157281026244e-11,
        0.03771799057722092,
        -6.852680090041474e-10
      ]
    },
    {
      "name": "Bone.006_end_08",
      "rotation": [
        -9.4039548065783e-38,
        2.168404344971009e-19,
        4.336808689942018e-19,
        1.0
      ],
      "translation": [
        2.168404344971009e-19,
        0.044578712433576584,
        6.938893903907228e-18
      ]
    }
  ],
  "samplers": [
    {
      "magFilter": 9729,
      "minFilter": 9987,
      "wrapS": 10497,
      "wrapT": 10497
    }
  ],
  "scene": 0,
  "scenes": [
    {
      "name": "Sketchfab_Scene",
      "nodes": [
        0
      ]
    }
  ],
  "skins": [
    {
      "inverseBindMatrices": 4,
      "joints": [
        7,
        10,
        11,
        12,
        13,
        14,
        15,
        16,
        17,
        18
      ],
      "skeleton": 7
    }
  ],
  "textures": [
    {
      "sampler": 0,
      "source": 0
    }
  ]
}
